<svg width="700" height="200" viewBox="0 0 700 200" xmlns="http://www.w3.org/2000/svg">

  <defs>
    <!-- flatter curve -->
    <path id="textArc" d="M 170 125 Q 350 65 530 125"></path>
  </defs>

  <!-- stars (slightly adjusted upward) -->
  <g fill="currentColor" opacity="0.45">
    <path d="M170 55 L173 62 L180 65 L173 68 L170 75 L167 68 L160 65 L167 62 Z"></path>
    <path d="M530 60 L533 67 L540 70 L533 73 L530 80 L527 73 L520 70 L527 67 Z"></path>
  </g>

  <!-- curved title (slightly smaller + tighter) -->
  <text font-family="'Snell Roundhand', 'Segoe Script', 'Lucida Handwriting', 'Brush Script MT', cursive" font-size="50" font-weight="500" letter-spacing="0.4" fill="currentColor">
    <textPath href="#textArc" startOffset="50%" text-anchor="middle">
      WanderLustApp
    </textPath>
  </text>

  <!-- compass (moved up + slightly smaller feel) -->
  <g transform="translate(350 140)">

    <!-- main points -->
    <path d="M0 -28 L6 -9 L0 -2 L-6 -9 Z" fill="currentColor" opacity="0.85"></path>
    <path d="M28 0 L9 6 L2 0 L9 -6 Z" fill="currentColor" opacity="0.6"></path>
    <path d="M0 28 L5 9 L0 2 L-5 9 Z" fill="currentColor" opacity="0.4"></path>
    <path d="M-28 0 L-9 6 L-2 0 L-9 -6 Z" fill="currentColor" opacity="0.7"></path>

    <!-- diagonals -->
    <path d="M16 -16 L7 -6 L4 -4 L6 -7 Z" fill="currentColor" opacity="0.5"></path>
    <path d="M16 16 L7 6 L4 4 L6 7 Z" fill="currentColor" opacity="0.35"></path>
    <path d="M-16 16 L-7 6 L-4 4 L-6 7 Z" fill="currentColor" opacity="0.5"></path>
    <path d="M-16 -16 L-7 -6 L-4 -4 L-6 -7 Z" fill="currentColor" opacity="0.35"></path>

    <!-- center -->
    <circle cx="0" cy="0" r="3.5" fill="currentColor"></circle>
    <circle cx="0" cy="0" r="10" fill="none" stroke="currentColor" stroke-opacity="0.3" stroke-width="1"></circle>

    <!-- WEST -->
    <text x="-60" y="4" text-anchor="middle" font-family="'Trebuchet MS', Arial, sans-serif" font-size="14" fill="currentColor" opacity="0.7" letter-spacing="1">
      explore
    </text>

    <!-- EAST -->
    <text x="60" y="4" text-anchor="middle" font-family="'Trebuchet MS', Arial, sans-serif" font-size="14" fill="currentColor" opacity="0.7" letter-spacing="1">
      wander
    </text>

    <!-- SOUTH -->
    <text x="0" y="50" text-anchor="middle" font-family="'Trebuchet MS', Arial, sans-serif" font-size="14" fill="currentColor" opacity="0.7" letter-spacing="1">
      discover
    </text>

  </g>
</svg>